{"title":"Chris Brown Ft. Lil Wayne &amp; Tyga - Loyal [Explicit] 720p [Sb","uid":9866345,"size":78095037,"categoryP":"video","categoryS":"music_videos","magnet":"?xt=urn:btih:c13138d2fe0fac0098e403a7ed20675df93a2546&amp;dn=Chris+Brown+Ft.+Lil+Wayne+%26amp%3B+Tyga+-+Loyal+%5BExplicit%5D+720p+%5BSb&amp;tr=udp%3A%2F%2Ftracker.openbittorrent.com%3A80&amp;tr=udp%3A%2F%2Fopen.demonii.com%3A1337&amp;tr=udp%3A%2F%2Ftracker.coppersurfer.tk%3A6969&amp;tr=udp%3A%2F%2Fexodus.desync.com%3A6969","seeders":4,"leechers":0,"uploader":"Sbyky","files":1,"time":1396361036,"description":"\n\nGeneral\nComplete name                            : Chris Brown Ft. Lil Wayne &amp; Tyga - Loyal [Explicit] 720p [Sbyky].MP4\nFormat                                   : MPEG-4\nFormat profile                           : Base Media\nCodec ID                                 : isom\nFile size                                : 74.5 MiB\nDuration                                 : 4mn 30s\nOverall bit rate mode                    : Variable\nOverall bit rate                         : 2 310 Kbps\nEncoded date                             : UTC 2014-03-21 00:48:21\nTagged date                              : UTC 2014-03-21 00:48:21\n\nVideo\nID                                       : 1\nFormat                                   : AVC\nFormat/Info                              : Advanced Video Codec\nFormat profile                           : &lt;a class=&quot;__cf_email__&quot; href=&quot;/cdn-cgi/l/email-protection&quot; data-cfemail=&quot;ca87aba3a48a86f9e4fb&quot;&gt;[email&amp;#160;protected]&lt;/a&gt;&lt;script cf-hash='f9e31' type=&quot;text/javascript&quot;&gt;\n/* &lt;![CDATA[ */!function(){try{var t=&quot;currentScript&quot;in document?document.currentScript:function(){for(var t=document.getElementsByTagName(&quot;script&quot;),e=t.length;e--;)if(t[e].getAttribute(&quot;cf-hash&quot;))return t[e]}();if(t&amp;&amp;t.previousSibling){var e,r,n,i,c=t.previousSibling,a=c.getAttribute(&quot;data-cfemail&quot;);if(a){for(e=&quot;&quot;,r=parseInt(a.substr(0,2),16),n=2;a.length-n;n+=2)i=parseInt(a.substr(n,2),16)^r,e+=String.fromCharCode(i);e=document.createTextNode(e),c.parentNode.replaceChild(e,c)}}}catch(u){}}();/* ]]&gt; */&lt;/script&gt;\nFormat settings, CABAC                   : Yes\nFormat settings, ReFrames                : 3 frames\nCodec ID                                 : avc1\nCodec ID/Info                            : Advanced Video Coding\nDuration                                 : 4mn 30s\nBit rate                                 : 2 181 Kbps\nWidth                                    : 1 280 pixels\nHeight                                   : 720 pixels\nDisplay aspect ratio                     : 16:9\nFrame rate mode                          : Variable\nFrame rate                               : 23.976 fps\nMinimum frame rate                       : 23.974 fps\nMaximum frame rate                       : 24.644 fps\nColor space                              : YUV\nChroma subsampling                       : 4:2:0\nBit depth                                : 8 bits\nScan type                                : Progressive\nBits/(Pixel*Frame)                       : 0.099\nStream size                              : 70.3 MiB (94%)\nEncoded date                             : UTC 2014-03-21 00:48:21\nTagged date                              : UTC 2014-03-21 00:48:21\n\nAudio\nID                                       : 2\nFormat                                   : AAC\nFormat/Info                              : Advanced Audio Codec\nFormat profile                           : LC\nCodec ID                                 : 40\nDuration                                 : 4mn 30s\nBit rate mode                            : Variable\nBit rate                                 : 126 Kbps\nChannel(s)                               : 2 channels\nChannel positions                        : Front: L R\nSampling rate                            : 44.1 KHz\nCompression mode                         : Lossy\nStream size                              : 4.05 MiB (5%)\nEncoded date                             : UTC 2014-03-21 00:47:54\nTagged date                              : UTC 2014-03-21 00:47:54\n\nShared By Sbyky\n","torrent":{"xt":"urn:btih:c13138d2fe0fac0098e403a7ed20675df93a2546","amp;dn":"Chris+Brown+Ft.+Lil+Wayne+%26amp%3B+Tyga+-+Loyal+%5BExplicit%5D+720p+%5BSb","amp;tr":["udp%3A%2F%2Ftracker.openbittorrent.com%3A80","udp%3A%2F%2Fopen.demonii.com%3A1337","udp%3A%2F%2Ftracker.coppersurfer.tk%3A6969","udp%3A%2F%2Fexodus.desync.com%3A6969"],"infoHash":"c13138d2fe0fac0098e403a7ed20675df93a2546","infoHashBuffer":{"type":"Buffer","data":[193,49,56,210,254,15,172,0,152,228,3,167,237,32,103,93,249,58,37,70]},"announce":[],"urlList":[]}}